<?xml version="1.0" encoding="iso-8859-1"?>
<!-- Generator: Adobe Illustrator 19.0.0, SVG Export Plug-In . SVG Version: 6.00 Build 0)  -->
<svg xmlns="http://www.w3.org/2000/svg" xmlns:xlink="http://www.w3.org/1999/xlink" version="1.1" id="Capa_1" x="0px" y="0px" viewBox="0 0 220 220" style="enable-background:new 0 0 220 220;" xml:space="preserve" width="512px" height="512px">
<g>
	<rect y="40.5" width="58" height="165" fill="#ce0414"/>
	<path d="M206,65.5v-51h-87.961L85,47.034V65.5H72v140h148v-140H206z M105,55.725v-0.377L126.293,34.5h0.794h58.246H186v77h-0.667   H105V55.725z M117,188.5H94v-21h23V188.5z M117,150.5H94v-21h23V150.5z M157,188.5h-23v-21h23V188.5z M157,150.5h-23v-21h23V150.5z    M197,188.5h-23v-21h23V188.5z M197,150.5h-23v-21h23V150.5z" fill="#ce0414"/>
</g>
<g>
</g>
<g>
</g>
<g>
</g>
<g>
</g>
<g>
</g>
<g>
</g>
<g>
</g>
<g>
</g>
<g>
</g>
<g>
</g>
<g>
</g>
<g>
</g>
<g>
</g>
<g>
</g>
<g>
</g>
</svg>
