<svg xmlns="http://www.w3.org/2000/svg" xmlns:xlink="http://www.w3.org/1999/xlink" preserveAspectRatio="xMidYMid" width="39" height="35" viewBox="0 0 39 35">
  <defs>
    <style>
      .cls-1 {
        fill: #fff;
        fill-rule: evenodd;
      }
    </style>
  </defs>
  <path d="M35.226,21.250 L3.774,21.250 C1.698,21.250 -0.000,19.563 -0.000,17.500 C-0.000,15.437 1.698,13.750 3.774,13.750 L35.226,13.750 C37.302,13.750 39.000,15.437 39.000,17.500 C39.000,19.563 37.302,21.250 35.226,21.250 ZM35.226,7.500 L3.774,7.500 C1.698,7.500 -0.000,5.812 -0.000,3.750 C-0.000,1.687 1.698,-0.000 3.774,-0.000 L35.226,-0.000 C37.302,-0.000 39.000,1.687 39.000,3.750 C39.000,5.812 37.302,7.500 35.226,7.500 ZM3.774,27.500 L35.226,27.500 C37.302,27.500 39.000,29.188 39.000,31.250 C39.000,33.313 37.302,35.000 35.226,35.000 L3.774,35.000 C1.698,35.000 -0.000,33.313 -0.000,31.250 C-0.000,29.188 1.698,27.500 3.774,27.500 Z" class="cls-1"/>
</svg>
